# xmcd CD database file
#
# Track frame offsets:
#	150
#	7154
#	29756
#	44926
#	60591
#	72288
#	88874
#	105147
#	121602
#	145711
#	162349
#	176121
#	187958
#	208962
#
# Disc length: 2852 seconds
#
# Revision: 0
# Processed by: cddbd v1.4PL0 Copyright (c) Steve Scherf et al.
# Submitted via: CDex 1.51
#
DISCID=ca0b220e
DTITLE=Marilyn Monroe - Forever
DYEAR=1900
DGENRE=Jazz
TTITLE0=Happy birthday Mr. President
TTITLE1=Bye bye baby
TTITLE2=I wana be loved by you
TTITLE3=Under a diamond's sky
TTITLE4=When I fall in love
TTITLE5=Diamond's are a girl's best friends
TTITLE6=Favola
TTITLE7=You'd be surprised
TTITLE8=My heart belong to daddy
TTITLE9=Over the raimbow
TTITLE10=Niagara
TTITLE11=Moon river
TTITLE12=Let's make love
TTITLE13=Happy birthday
EXTD=
EXTT0=
EXTT1=
EXTT2=
EXTT3=
EXTT4=
EXTT5=
EXTT6=
EXTT7=
EXTT8=
EXTT9=
EXTT10=
EXTT11=
EXTT12=
EXTT13=
PLAYORDER=
